<svg id="Layer_1" data-name="Layer 1" xmlns="http://www.w3.org/2000/svg" viewBox="0 0 110 100"><defs><style>.cls-1{fill:#231f20;}.cls-1,.cls-2,.cls-3{fill-rule:evenodd;}.cls-2{fill:#fff;}.cls-3{fill:#576066;}</style></defs><path class="cls-1" d="M5.518,50.058A49.3,49.3,0,1,1,54.87,99.3,49.3,49.3,0,0,1,5.518,50.058"/><path class="cls-2" d="M10.588,50.073A44.222,44.222,0,1,1,54.875,94.222,44.223,44.223,0,0,1,10.588,50.073"/><path class="cls-3" d="M54.637,92.168a42.164,42.164,0,1,1,42.34-41.995,42.165,42.165,0,0,1-42.34,42"/><path class="cls-2" d="M74.523,20.224a3.394,3.394,0,0,1,.783,4.95,3.455,3.455,0,1,1-5.687-3.909,3.4,3.4,0,0,1,4.9-1.041m1.709-2.491c-2.947-2.024-6.862-2.024-9.312,1.544A6.527,6.527,0,0,0,68.7,28.709a6.528,6.528,0,0,0,9.441-1.7c2.452-3.571,1.041-7.249-1.907-9.272"/><path class="cls-2" d="M55.561,19.618l2.06.106c.252.533,1.655,3.707,1.691,3.926a.551.551,0,0,1-.349.574l-.024.447,4.694.6.016-.588c-.231-.01-.541-.409-.715-.742L60.9,19.47a3.537,3.537,0,0,0,2.96-3.61c.054-2.382-1.462-4.121-4.228-4.308l-7.246-.363-.03.583a.488.488,0,0,1,.416.495L52.225,23.23a.709.709,0,0,1-.481.676l-.028.444,4.04.218.024-.443a.541.541,0,0,1-.416-.61Zm.282-5.484,3.315.168c1.233.061,1.583.726,1.545,1.441s-.445,1.343-1.683,1.279L55.7,16.854Z"/><path class="cls-2" d="M35.274,31.411a.678.678,0,0,1-.045.872l.325.415,5.268-4.226a6.221,6.221,0,0,0,.885-8.977c-2.311-2.873-5.85-3.742-8.861-1.321L27.4,22.551l.338.409a.7.7,0,0,1,.952.256Zm-3.123-8.929,2.082-1.672c1.737-1.4,3.409-.936,4.727.706s1.5,3.493-.232,4.889L36.645,28.08Z"/><path class="cls-1" d="M32.873,50.106A21.871,21.871,0,1,1,55.158,71.553,21.872,21.872,0,0,1,32.873,50.106"/><polygon class="cls-3" points="68.021 66.367 59.247 59.022 59.525 70.457 54.809 60.037 50.098 70.463 50.366 59.027 41.599 66.376 46.803 56.187 35.718 59.004 44.825 52.083 33.615 49.813 44.825 47.532 35.71 40.622 46.799 43.427 41.587 33.246 50.359 40.589 50.083 29.152 54.799 39.57 59.508 29.147 59.235 40.585 68.007 33.238 62.804 43.422 73.888 40.607 64.78 47.524 75.99 49.799 64.78 52.08 73.897 58.993 62.807 56.181 68.021 66.367"/><path class="cls-2" d="M65.5,62.718c-4.43-1.764-5.712-7.316-8.869-8.164,2.63,3.657.681,7.032,2.025,11.749-2.827-3.842-1.765-9.08-4.228-11.246.629,4.177-2.917,6.918-3.382,11.687-.718-6.773,2.381-9.5,1.174-12.19-1.542,4.422-5.822,5.374-8.061,8.909,2.178-5.724,6.217-7.271,6.3-10.322-3.4,2.918-7.21,1.595-11.141,4.266,3.146-3.858,9.391-4.336,10.16-6.306-6.254.234-6.685-1.642-11.651-1.128,5.371-2.184,9.442.2,11.649-1.137-3.625-.667-5.622-4.766-9.89-6.235,5.068.391,7.2,3.879,10.871,4.194-3.517-2.962-2.544-6.084-6.2-9.981C48,38.748,50,45.26,52.222,45.383c-1.677-4.819.468-6.54-1.179-11.4,3.484,6.019,1.226,8.647,3.385,10.9C54.69,40.3,57.252,40,58.218,34.234c.751,5.19-2.227,6.857-1.587,11.149,1.934-4.139,4.9-3.161,8.233-8.387-2.394,6.256-4.836,5.343-6.457,9.794,3.556-2.846,6.393-1.338,11.143-4.264-3.512,4.1-6.2,2.513-10.16,6.3,3.723-1.518,6.208,1.053,12.021.966-6.23,1.382-8.469-.443-12.019,1.3,4.819.263,6.433,4.142,10.486,5.916-5.466-1.055-8.049-4.081-11.47-3.872,3.879,2.5,4.006,7.025,7.094,9.58"/><path class="cls-2" d="M24.312,65.666a1.887,1.887,0,1,1,1.921,1.851,1.886,1.886,0,0,1-1.921-1.851"/><path class="cls-2" d="M81.5,65.644a1.882,1.882,0,1,1,1.92,1.853,1.885,1.885,0,0,1-1.92-1.853"/><path class="cls-2" d="M25.8,32.385l-.266.529c.274.189.07.5-.112.878L23.97,36.725l-1.914-.841,2.75-5.695c.086-.124.18-.221.6-.166l.238-.476L22.63,28.184l-4.778,9.738.5.215a.68.68,0,0,1,.76-.181l9.674,4.124c.209.092.656.385.586.817l.561.2a69.232,69.232,0,0,1,4.431-8.909c.1-.2.406-.627.406-.627L31.45,32.093l-.258.535a.616.616,0,0,1,.191.8l-2.731,5.357-2.144-.943,1.3-2.744c.184-.372.454-.922.781-.843l.266-.523Z"/><path class="cls-2" d="M90.639,38.553l-.044-.514a.677.677,0,0,1-.364-.349,12.059,12.059,0,0,1-.055-1.387,10.9,10.9,0,0,0-.937-3.756,6.567,6.567,0,0,0-8.785-3.492c-4.09,1.691-4.957,5.622-3.5,8.956a8.283,8.283,0,0,0,2.966,3.92.716.716,0,0,1,.192.757l.424.349,2.7-3.409-.465-.358a.734.734,0,0,1-.447.151c-1.092-.033-2.108-1.527-2.384-2.208a3.731,3.731,0,0,1,1.827-4.993,3.146,3.146,0,0,1,2.8,0A3.7,3.7,0,0,1,86.3,33.988c.788,1.6.775,3.063.346,3.546a1.214,1.214,0,0,1-.418.324l-.085.5Z"/><path class="cls-2" d="M79.814,54.273l-.381,2.771.723.087c.009-.268.376-.634.774-.858l6.8-4.2,3.415,3.959a1.671,1.671,0,0,1,.576,1.362l.61.09.694-5.626-.492-.059a.411.411,0,0,1-.553.263c-.256-.135-2.126-2.328-3.962-4.018l-.031-.095,3.792.171c.217,0,.712.016.738.538l.581.009.178-4.286-.58-.019a.667.667,0,0,1-.756.568L82.028,44.6c-.226,0-.845.042-.906-.58l-.715.014-.154,4.342.725.011c.073-.522.392-.579.61-.579l2.369.031,1.79,1.829c-.621.307-4,2.337-4.291,2.418a.426.426,0,0,1-.552-.45l-.745-.052s-.194,1.532-.371,2.844Z"/><path class="cls-2" d="M64.481,74.8a.546.546,0,0,1,.3-.777l-.273-.612L60.36,75.259l.24.539a.545.545,0,0,1,.778.3l4.328,9.586a.547.547,0,0,1-.3.779l.3.673,10.187-4.646-1.367-3-.479.224a.639.639,0,0,1-.439.846l-5.422,2.477Z"/><path class="cls-2" d="M82.272,77.451l-.478-.561a.543.543,0,0,1-.829-.076l-6.709-8.032a.553.553,0,0,1,.075-.832l-.407-.489L70.6,70.237l.375.451a.543.543,0,0,1,.828.076l6.746,8.071a.554.554,0,0,1-.076.833l.468.56Z"/><path class="cls-2" d="M29.017,77.272a.683.683,0,0,1-.859.16l-.327.413,5.352,4.12A6.222,6.222,0,0,0,42.117,80.7c2.248-2.922,2.252-6.563-.818-8.917l-5.533-4.257-.316.418a.711.711,0,0,1-.029.991Zm7.935-5.149,2.12,1.628c1.767,1.36,1.713,3.094.434,4.758s-3.042,2.292-4.8.935l-2.121-1.63Z"/><path class="cls-2" d="M54.959,80.006l-.6-.056c-.092.315-.464.243-.884.209l-3.353-.279.152-2.092,6.13.475a.657.657,0,0,1,.7.634l.531.043.238-3.315-10.922-.9-.041.53a.625.625,0,0,1,.426.622l-.82,10.454c-.017.224-.15.731-.595.818v.587c6.842.561,10.894.865,10.894.865l.3-3.546-.526-.039c-.151.433-.309.5-.755.516l-6.1-.5.189-2.441,3.08.216c.423.036,1.042.083,1.083.41l.587.058Z"/><path class="cls-2" d="M24.979,53.44l-.16-2.312c.5-.321,3.359-2.2,3.572-2.267a.539.539,0,0,1,.613.26l.444-.042.053-4.69-.59.07c.015.234-.341.6-.645.817l-4.025,2.536a3.57,3.57,0,0,0-4.048-2.4c-2.376.3-3.91,2.047-3.751,4.8l.57,7.687.589-.058a.5.5,0,0,1,.436-.486L28.978,56.4a.706.706,0,0,1,.737.375l.444-.042L29.688,52.4l-.444.045a.8.8,0,0,1-.553.676ZM19.5,53.9l-.288-3.8c-.092-1.237.525-1.672,1.239-1.742s1.389.246,1.479,1.479l.292,3.8Z"/><path class="cls-2" d="M107.3,58.918h-.23v.492h.21a.574.574,0,0,0,.287-.057.2.2,0,0,0,.1-.188.2.2,0,0,0-.1-.184.483.483,0,0,0-.266-.063m.157-.34h-.877v1.97h.49v-.786a.406.406,0,0,1,.172.033.807.807,0,0,1,.182.229c.076.129.171.3.276.524h.575l-.182-.338a2.273,2.273,0,0,0-.211-.345.647.647,0,0,0-.247-.183.9.9,0,0,0,.37-.161.449.449,0,0,0,.162-.385.47.47,0,0,0-.191-.424.89.89,0,0,0-.519-.134m-.043-.5a1.517,1.517,0,0,0-1.048.427,1.539,1.539,0,0,0-.319.474,1.456,1.456,0,0,0-.114.577,1.475,1.475,0,0,0,.2.746,1.474,1.474,0,0,0,1.284.736,1.433,1.433,0,0,0,.745-.2,1.474,1.474,0,0,0-.177-2.645,1.485,1.485,0,0,0-.568-.114m0-.354a1.851,1.851,0,0,0-.707.138,1.964,1.964,0,0,0-.592.394,1.885,1.885,0,0,0-.4.587,1.839,1.839,0,0,0,.1,1.634,1.825,1.825,0,0,0,.671.672,1.858,1.858,0,0,0,1.841,0,1.843,1.843,0,0,0,.672-.672,1.851,1.851,0,0,0,.1-1.64,1.792,1.792,0,0,0-.394-.584,1.826,1.826,0,0,0-1.3-.529"/></svg>