<svg xmlns="http://www.w3.org/2000/svg" viewBox="0 0 50 50"><defs><style>.cls-1{fill:#fff;}</style></defs><title>Asset 3</title><g id="Layer_2" data-name="Layer 2"><g id="Layer_1-2" data-name="Layer 1"><path class="cls-1" d="M25,1.77A23.22,23.22,0,1,1,8.57,8.57,23.13,23.13,0,0,1,25,1.77M25,0A25,25,0,1,0,50,25,25,25,0,0,0,25,0Z"/><path class="cls-1" d="M36.63,14.83H13.37a.83.83,0,0,0-.61.25.88.88,0,0,0-.26.62h0V34.3a.87.87,0,0,0,.87.87H36.63a.87.87,0,0,0,.87-.87V15.7A.87.87,0,0,0,36.63,14.83ZM15.87,16.57H34.13L25,23.8l-9.13-7.23ZM14.24,33.43V17.5l10.22,8.09a.86.86,0,0,0,1.09,0L35.76,17.5V33.43Z"/></g></g></svg>