<svg id="Layer_1" data-name="Layer 1" xmlns="http://www.w3.org/2000/svg" viewBox="0 0 24 24"><defs><style>.cls-1{fill:#fff;}</style></defs><title>eat-01</title><path class="cls-1" d="M1.51,2.73a.14.14,0,0,0-.14.15V3C1.32,3.37,1,6.61,1,8.18v.08c0,1.18.7,1.47,1.7,1.49a3.36,3.36,0,0,1-.24,1.65v0a.62.62,0,0,0-.22.47l.19,9c0,.31.1.57.39.57h.54c.29,0,.36-.26.36-.57l.2-9a.67.67,0,0,0-.22-.47v0c-.2-.16-.25-1-.27-1.65,1-.05,1.68-.31,1.7-1.49V8.18C5.06,6.61,4.77,3.37,4.75,3V2.88a.17.17,0,0,0-.15-.15H4.46a.16.16,0,0,0-.15.15v5.3a.18.18,0,0,1,0,.11s0,.05-.08.05H4a.17.17,0,0,1-.15-.16V2.88a.16.16,0,0,0-.14-.15H3.56c-.15,0-.22.08-.22.15v5.3c0,.08,0,.16-.12.16H2.8a.25.25,0,0,1,0-.13V2.91a.13.13,0,0,0-.12-.18H2.49a.15.15,0,0,0-.15.15v5.3a.17.17,0,0,1,0,.13.14.14,0,0,1-.09,0H1.9a0,0,0,0,1,0,0l0,0s0-.05,0-.08V2.88a.17.17,0,0,0-.15-.15ZM9,2.73c-1.09.67-1.92,4-1.92,7.79,0,.47,0,.9,0,1.37a1.88,1.88,0,0,1,.41,1.26,2.13,2.13,0,0,1-.09.67H9Zm2.8,0a16.75,16.75,0,0,0-.76,5A6.12,6.12,0,0,0,16.41,14v6.69H16.2c-.32,0-3.89.36-3.89.77v.05h9.26v-.05c0-.41-3.55-.75-3.87-.77h-.24V14a6.13,6.13,0,0,0,5.39-6.22,16.74,16.74,0,0,0-.75-5Zm9.94.57a15.14,15.14,0,0,1,.48,2.9H12.67v0a11.46,11.46,0,0,0,.2,3.14,5.82,5.82,0,0,0,2.38,3.76,5.52,5.52,0,0,1-2.55-1.91,5.8,5.8,0,0,1-1.12-3.75,19.59,19.59,0,0,1,.58-4.17h9.16A3,3,0,0,1,21.74,3.3ZM7.27,14a.19.19,0,0,0-.17.16v.2a1.05,1.05,0,0,1,.3.75,19.07,19.07,0,0,0-.17,2.26c0,1.06.22,2.37.22,2.65a1,1,0,0,1-.2.64.5.5,0,0,0-.29.39.42.42,0,0,0,.14.28.18.18,0,0,0,.15.1H8.88A.15.15,0,0,0,9,21.3V14.18A.16.16,0,0,0,8.88,14Z"/></svg>