<svg xmlns="http://www.w3.org/2000/svg" viewBox="0 0 60 60"><defs><style>.cls-1,.cls-2{fill:#fff;}</style></defs><path class="cls-2" d="M30,16c4.54,0,5.08,0,6.87.1a9.14,9.14,0,0,1,3.16.58,5.2,5.2,0,0,1,2,1.24,5,5,0,0,1,1.27,1.93,9.24,9.24,0,0,1,.59,3.1c.08,1.76.1,2.29.1,6.75s0,5-.1,6.75a9,9,0,0,1-.59,3.1A5.57,5.57,0,0,1,40,42.72a9.94,9.94,0,0,1-3.16.58c-1.79.08-2.33.1-6.87.1s-5.08,0-6.88-.1A9.65,9.65,0,0,1,20,42.72,5.27,5.27,0,0,1,18,41.47a5,5,0,0,1-1.27-1.92,9,9,0,0,1-.59-3.1c-.08-1.77-.1-2.29-.1-6.75s0-5,.1-6.75a8.75,8.75,0,0,1,.59-3.1A5.51,5.51,0,0,1,20,16.68a9.39,9.39,0,0,1,3.16-.58C24.92,16,25.46,16,30,16Zm0-3c-4.62,0-5.2,0-7,.1a12.68,12.68,0,0,0-4.12.77,8.58,8.58,0,0,0-3,1.93,8.4,8.4,0,0,0-2,3,12,12,0,0,0-.79,4.06c-.08,1.78-.1,2.35-.1,6.88s0,5.11.1,6.89a12.08,12.08,0,0,0,.79,4.06,8.07,8.07,0,0,0,2,3,8.44,8.44,0,0,0,3,1.93A12.67,12.67,0,0,0,23,46.3c1.82.08,2.39.1,7,.1s5.2,0,7-.1a12.72,12.72,0,0,0,4.13-.78,8.63,8.63,0,0,0,5-4.88,12,12,0,0,0,.79-4.06c.08-1.78.1-2.35.1-6.89s0-5.1-.1-6.89a12.13,12.13,0,0,0-.79-4.06,8.15,8.15,0,0,0-2-2.95,8.44,8.44,0,0,0-3-1.93A12.67,12.67,0,0,0,37,13.08C35.2,13,34.62,13,30,13Z"/><path class="cls-2" d="M30,21.12a8.58,8.58,0,1,0,8.74,8.58A8.66,8.66,0,0,0,30,21.12Zm0,14.14a5.57,5.57,0,1,1,5.67-5.57A5.62,5.62,0,0,1,30,35.26Z"/><path class="cls-2" d="M39.08,22.78a2,2,0,1,0-2-2A2,2,0,0,0,39.08,22.78Z"/></svg>