<svg xmlns="http://www.w3.org/2000/svg" viewBox="0 0 50 50"><defs><style>.cls-1{fill:#fff;}</style></defs><title>Asset 1</title><g id="Layer_2" data-name="Layer 2"><g id="Layer_1-2" data-name="Layer 1"><path class="cls-1" d="M33.71,21v-.31A8.71,8.71,0,0,0,18.84,14.5l-.05.06a8.66,8.66,0,0,0-2.5,6.1v.42a.62.62,0,0,0,0,.19c.14,2.42,3.37,8.14,5.71,12.29,1,1.74,1.82,3.2,2.15,3.95a.91.91,0,0,0,1.2.46.9.9,0,0,0,.46-.46c.37-.82,1.25-2.35,2.28-4.15,2.35-4.1,5.47-9.54,5.59-12.1a1,1,0,0,0,0-.29ZM31.89,21h0v.06c0,2-3.05,7.35-5.35,11.36-.58,1-1.1,1.91-1.53,2.7-.39-.72-.87-1.57-1.4-2.49-2.28-4-5.44-9.63-5.48-11.52a.71.71,0,0,0,0-.14c0-.11,0-.23,0-.35a6.89,6.89,0,0,1,2-4.83l.05,0a6.89,6.89,0,0,1,9.75,0,7,7,0,0,1,2,4.87C31.89,20.79,31.89,20.91,31.89,21Z"/><path class="cls-1" d="M27.66,18.05a3.74,3.74,0,0,0-5.32,0l-.05.06a3.76,3.76,0,0,0,5.37,5.26h0a3.77,3.77,0,0,0,0-5.32Zm-1.29,4a1.94,1.94,0,0,1-2.78-2.71l0,0A1.92,1.92,0,0,1,25,18.77a1.91,1.91,0,0,1,1.94,1.94A1.9,1.9,0,0,1,26.37,22.08Z"/><path class="cls-1" d="M25,1.77A23.22,23.22,0,1,1,8.57,8.57,23.13,23.13,0,0,1,25,1.77M25,0A25,25,0,1,0,50,25,25,25,0,0,0,25,0Z"/></g></g></svg>