<svg id="Layer_1" data-name="Layer 1" xmlns="http://www.w3.org/2000/svg" viewBox="0 0 24 24"><defs><style>.cls-1{fill:#fff;}</style></defs><title>apple</title><path class="cls-1" d="M14.31,2.56a3.9,3.9,0,0,0-1.88,1,3.76,3.76,0,0,0-.9,1.89c-4.15-1.83-8.21,1.2-8,5.69S7.2,22,12,19.42c4.82,2.65,7.92-3.56,8.49-7.51s-2.69-8.46-7.84-6.36a2.47,2.47,0,0,1,.63-1.26,3.91,3.91,0,0,1,1.48-.86A1.08,1.08,0,0,0,14.31,2.56Zm-4,7A1.85,1.85,0,0,1,12,10.69a1.85,1.85,0,0,1,1.6-1.13,1.76,1.76,0,0,1,1.78,1.63c0,2-2.2,2.2-3.38,4.5-1.18-2.3-3.41-2.51-3.39-4.5A1.73,1.73,0,0,1,10.36,9.56Z"/></svg>