<svg xmlns="http://www.w3.org/2000/svg" viewBox="0 0 50 50"><defs><style>.cls-1{fill:#fff;}</style></defs><title>Asset 2</title><g id="Layer_2" data-name="Layer 2"><g id="Layer_1-2" data-name="Layer 1"><path class="cls-1" d="M25,1.77A23.22,23.22,0,1,1,8.57,8.57,23.13,23.13,0,0,1,25,1.77M25,0A25,25,0,1,0,50,25,25,25,0,0,0,25,0Z"/><path class="cls-1" d="M37.08,31.64l-5.19-4.49c-1.36-1.18-2.09-.61-2.95.07a1.24,1.24,0,0,1-1.36.31,13.62,13.62,0,0,1-5-5,1.24,1.24,0,0,1,.3-1.36c.68-.86,1.25-1.58.07-2.95L18.48,13A2.63,2.63,0,0,0,15,13c-2.73,2.62-3.8,4.72-1.49,8.2h0A56.69,56.69,0,0,0,28.94,36.64c3.64,2.42,8.82.19,8.84-3.23A2.43,2.43,0,0,0,37.08,31.64ZM30,35A54.09,54.09,0,0,1,15.12,20.1h0c-2.33-3.51,1.29-6.3,1.95-5.66,1.43,1.43,3,3.51,4.4,5.08.33.38-1.67,1.35-.72,3.75a14.71,14.71,0,0,0,6.09,6.09c2.41.95,3.37-1.05,3.75-.72.95.82,4.89,3.9,5.21,4.75C35.8,35.09,32.43,36.59,30,35Z"/></g></g></svg>