<svg id="Layer_1" data-name="Layer 1" xmlns="http://www.w3.org/2000/svg" viewBox="0 0 50 50"><defs><style>.cls-1{fill:#fff;}</style></defs><path class="cls-1" d="M25,1.77A23.24,23.24,0,0,1,41.43,41.43,23.24,23.24,0,0,1,8.57,8.57,23.11,23.11,0,0,1,25,1.77ZM25,0A25,25,0,1,0,50,25,25,25,0,0,0,25,0Z"/><path class="cls-1" d="M26.43,39.78H23.64a1.29,1.29,0,0,1-1.28-1.28V36.36A6.51,6.51,0,0,1,17,30.65a1.2,1.2,0,0,1,.28-1,1.37,1.37,0,0,1,1-.46h2.79a1.34,1.34,0,0,1,1.27,1v0a1.19,1.19,0,0,0,1.16.93H25.9a2.1,2.1,0,0,0,2.17-1.81v0a2,2,0,0,0-.49-1.55,2,2,0,0,0-1.5-.66H24.26a7.53,7.53,0,0,1-7.64-6.61,7.35,7.35,0,0,1,5.7-7.9V10.43A1.28,1.28,0,0,1,23.6,9.14h2.79a1.29,1.29,0,0,1,1.28,1.29v2.14a6.49,6.49,0,0,1,5.38,5.7,1.19,1.19,0,0,1-.28,1,1.37,1.37,0,0,1-1,.46H29a1.32,1.32,0,0,1-1.27-1v0a1.19,1.19,0,0,0-1.16-.93H24.13A2.1,2.1,0,0,0,22,19.59h0a2,2,0,0,0,.49,1.55,2,2,0,0,0,1.5.66h2.13a7.31,7.31,0,0,1,1.63,14.44V38.5A1.28,1.28,0,0,1,26.43,39.78Zm-2.6-1.48h2.41V35l.62-.1A6,6,0,0,0,32,29.69a5.85,5.85,0,0,0-1.51-4.47,6,6,0,0,0-4.36-1.93H24a3.57,3.57,0,0,1-2.61-1.15,3.45,3.45,0,0,1-.85-2.69,3.57,3.57,0,0,1,3.64-3.15h2.42a2.7,2.7,0,0,1,2.57,1.94h2.43A5.07,5.07,0,0,0,26.87,14l-.69,0V10.62h-2.4v3.24l-.64.09a5.9,5.9,0,0,0-5.07,6.42,6.14,6.14,0,0,0,6.18,5.28h1.81a3.56,3.56,0,0,1,2.61,1.15,3.49,3.49,0,0,1,.86,2.68,3.6,3.6,0,0,1-3.64,3.16H23.45a2.68,2.68,0,0,1-2.56-1.95H18.45A5.08,5.08,0,0,0,23.13,35l.69,0V38.3Z"/></svg>