<svg id="Layer_1" data-name="Layer 1" xmlns="http://www.w3.org/2000/svg" viewBox="0 0 60 60"><defs><style>.cls-1{fill:#fff;}</style></defs><title>ticket</title><circle class="cls-1" cx="30" cy="30" r="30"/><path d="M45.78,29.65l-2.32-3.54a4.6,4.6,0,0,1-4.47-2,4.5,4.5,0,0,1-.05-4.87l-2.32-3.54a.35.35,0,0,0-.3-.23.41.41,0,0,0-.34.05L19.85,26l1.21,1.85a.75.75,0,0,1-.23,1,1,1,0,0,1-.4.11.71.71,0,0,1-.64-.34l-1.22-1.86-4.24,2.73a.48.48,0,0,0-.17.69l2.32,3.54a4.6,4.6,0,0,1,4.47,2A4.54,4.54,0,0,1,21,40.68l2.32,3.54a.34.34,0,0,0,.29.23.42.42,0,0,0,.35-.06l4.23-2.73-.87-1.33a.76.76,0,1,1,1.28-.81l.87,1.33,16.13-10.5A.54.54,0,0,0,45.78,29.65ZM23.85,33.54a1.07,1.07,0,0,1-.41.12.72.72,0,0,1-.63-.35l-1.34-2a.76.76,0,1,1,1.28-.82l1.33,2A.75.75,0,0,1,23.85,33.54Zm2.9,4.53a1.2,1.2,0,0,1-.4.11.7.7,0,0,1-.64-.35l-1.34-2A.76.76,0,0,1,25.65,35L27,37A.75.75,0,0,1,26.75,38.07Z"/></svg>