<svg id="Layer_1" data-name="Layer 1" xmlns="http://www.w3.org/2000/svg" viewBox="0 0 50 50"><defs><style>.cls-1{fill:#fff;}</style></defs><path class="cls-1" d="M25,1.77A23.24,23.24,0,0,1,41.43,41.43,23.24,23.24,0,0,1,8.57,8.57,23.11,23.11,0,0,1,25,1.77ZM25,0A25,25,0,1,0,50,25,25,25,0,0,0,25,0Z"/><path class="cls-1" d="M34.53,15.55A13.5,13.5,0,1,0,38.46,25,13.48,13.48,0,0,0,34.53,15.55ZM25,36.86A11.79,11.79,0,1,1,36.78,25.07,11.79,11.79,0,0,1,25,36.86Z"/><path class="cls-1" d="M24.09,17.45a.88.88,0,0,1,.9-.81.9.9,0,0,1,.94.81v5.6a3,3,0,0,1,.6.43,2.2,2.2,0,0,1,0,3,2.17,2.17,0,0,1-1.53.6,1.79,1.79,0,0,1-.68-.13L21.68,29.6a.91.91,0,0,1-1.28-1.28L23,25.71a1.92,1.92,0,0,1-.13-.72,2.19,2.19,0,0,1,.6-1.51,3,3,0,0,1,.61-.43Z"/></svg>